<svg viewBox="-21 0 512 512" xmlns="http://www.w3.org/2000/svg">
    <path d="m434.753906 360.8125c-32.257812-27.265625-50.753906-67.117188-50.753906-109.335938v-59.476562c0-75.070312-55.765625-137.214844-128-147.625v-23.042969c0-11.796875-9.558594-21.332031-21.332031-21.332031-11.777344 0-21.335938 9.535156-21.335938 21.332031v23.042969c-72.253906 10.410156-128 72.554688-128 147.625v59.476562c0 42.21875-18.496093 82.070313-50.941406 109.503907-8.300781 7.105469-13.058594 17.429687-13.058594 28.351562 0 20.589844 16.746094 37.335938 37.335938 37.335938h352c20.585937 0 37.332031-16.746094 37.332031-37.335938 0-10.921875-4.757812-21.246093-13.246094-28.519531zm0 0"/>
    <path d="m234.667969 512c38.632812 0 70.953125-27.542969 78.378906-64h-156.757813c7.421876 36.457031 39.742188 64 78.378907 64zm0 0"/>
</svg>